<svg width="20.000000" height="20.000000" viewBox="0 0 20 20" fill="none" xmlns="http://www.w3.org/2000/svg" xmlns:xlink="http://www.w3.org/1999/xlink">
	<desc>
			Created with Pixso.
	</desc>
	<defs>
		<clipPath id="clip132_3">
			<rect width="20.000000" height="20.000000" fill="white" fill-opacity="0"/>
		</clipPath>
	</defs>
	<rect width="20.000000" height="20.000000" fill="#FFFFFF" fill-opacity="0"/>
	<g clip-path="url(#clip132_3)">
		<path d="M0 3.92C0.03 3.75 0.06 3.6 0.09 3.43C0.21 2.99 0.41 2.6 0.73 2.28C1.31 1.7 1.89 1.11 2.48 0.54C2.97 0.07 3.53 -0.17 4.2 0.11C4.43 0.21 4.66 0.36 4.84 0.54C5.72 1.4 6.58 2.26 7.44 3.14C7.82 3.53 8.07 3.98 7.99 4.55C7.92 4.97 7.67 5.3 7.38 5.6C6.89 6.09 6.4 6.58 5.91 7.06C5.66 7.31 5.66 7.38 5.8 7.7C6.36 8.95 7.21 9.99 8.13 10.98C9.04 11.97 10.04 12.85 11.18 13.57C11.57 13.81 11.99 14.01 12.39 14.23C12.58 14.33 12.72 14.25 12.86 14.11C13.37 13.6 13.86 13.09 14.39 12.59C14.59 12.39 14.83 12.21 15.08 12.09C15.61 11.85 16.11 11.97 16.56 12.29C16.68 12.38 16.78 12.48 16.89 12.58C17.72 13.4 18.55 14.21 19.36 15.05C19.56 15.26 19.75 15.49 19.86 15.75C20.12 16.29 20.02 16.85 19.62 17.28C18.98 17.98 18.31 18.65 17.63 19.31C17.25 19.68 16.77 19.86 16.25 19.94C16.19 19.95 16.12 19.97 16.07 19.99C15.79 19.99 15.52 19.99 15.24 19.99C15.2 19.97 15.15 19.96 15.1 19.95C14.49 19.82 13.85 19.75 13.25 19.55C11.47 18.99 9.86 18.08 8.35 17.01C5.61 15.07 3.41 12.62 1.75 9.7C1.12 8.6 0.6 7.44 0.27 6.21C0.15 5.77 0.09 5.32 0 4.87C0 4.55 0 4.24 0 3.92Z" fill="#FFFFFF" fill-opacity="1.000000" fill-rule="nonzero"/>
	</g>
</svg>
