<svg width="30.000000" height="29.000000" viewBox="0 0 30 29" fill="none" xmlns="http://www.w3.org/2000/svg" xmlns:xlink="http://www.w3.org/1999/xlink">
	<desc>
			Created with Pixso.
	</desc>
	<defs/>
	<path id="Vector" d="M22.32 0C22.9 0.1 23.47 0.17 24.04 0.32C26.3 0.96 27.98 2.28 29.08 4.25C29.73 5.43 30 6.7 29.99 8.03C29.99 12.14 29.99 16.24 29.99 20.35C29.99 22.15 29.46 23.79 28.29 25.21C26.61 27.23 24.38 28.26 21.66 28.28C19.27 28.31 16.88 28.29 14.48 28.29C12.49 28.29 10.5 28.29 8.51 28.29C5.56 28.28 3.2 27.18 1.48 24.91C0.46 23.58 0 22.07 0 20.43C0 16.22 -0.01 12.02 0 7.8C0.01 4.38 2.32 1.42 5.77 0.38C6.38 0.19 7.04 0.12 7.68 0C12.56 0 17.44 0 22.32 0ZM15 25.78C17.07 25.78 19.13 25.78 21.21 25.78C21.98 25.78 22.75 25.75 23.49 25.51C25.85 24.73 27.32 22.79 27.33 20.36C27.34 16.23 27.34 12.09 27.34 7.96C27.34 6.96 27.12 6.01 26.57 5.16C25.43 3.37 23.72 2.51 21.51 2.5C17.16 2.5 12.81 2.5 8.45 2.5C7.59 2.5 6.74 2.63 5.95 2.99C3.79 4 2.68 5.67 2.67 7.94C2.64 12.08 2.66 16.23 2.67 20.37C2.67 21.36 2.88 22.31 3.45 23.16C4.58 24.89 6.25 25.76 8.41 25.78C10.6 25.79 12.8 25.78 15 25.78Z" fill="#FFFFFF" fill-opacity="1.000000" fill-rule="nonzero"/>
	<path id="Vector" d="M22.73 14.16C22.69 18.21 19.19 21.48 14.95 21.43C10.7 21.39 7.24 18.09 7.27 14.1C7.3 10.1 10.8 6.81 15.02 6.85C19.33 6.89 22.71 10.15 22.73 14.16ZM14.97 18.92C17.78 18.93 20.06 16.8 20.06 14.15C20.07 11.52 17.81 9.39 15 9.37C12.24 9.36 9.96 11.49 9.94 14.12C9.91 16.74 12.18 18.9 14.97 18.92Z" fill="#FFFFFF" fill-opacity="1.000000" fill-rule="nonzero"/>
	<path id="Vector" d="M23.02 4.73C24.08 4.7 24.97 5.52 25 6.57C25.03 7.55 24.15 8.41 23.11 8.43C22.02 8.46 21.13 7.65 21.1 6.62C21.07 5.61 21.94 4.76 23.02 4.73Z" fill="#FFFFFF" fill-opacity="1.000000" fill-rule="nonzero"/>
</svg>
