<svg width="380.000000" height="461.000000" viewBox="0 0 380 461" fill="none" xmlns="http://www.w3.org/2000/svg" xmlns:xlink="http://www.w3.org/1999/xlink">
	<desc>
			Created with Pixso.
	</desc>
	<defs>
		<clipPath id="clip5_18">
			<rect width="74.641479" height="67.259354" transform="translate(-17.000000 418.789856) rotate(-36.874634)" fill="white" fill-opacity="0"/>
		</clipPath>
		<clipPath id="clip74_22">
			<rect width="43.870754" height="39.531887" transform="translate(40.000000 368.325439) rotate(-36.874634)" fill="white" fill-opacity="0"/>
		</clipPath>
		<clipPath id="clip74_24">
			<rect width="13.701654" height="12.346545" transform="translate(69.000000 404.221924) rotate(-36.874634)" fill="white" fill-opacity="0"/>
		</clipPath>
		<clipPath id="clip5_13">
			<rect width="45.000000" height="41.000000" transform="translate(335.000000 9.000000)" fill="white" fill-opacity="0"/>
		</clipPath>
		<clipPath id="clip35_39">
			<rect width="23.000000" height="21.000000" transform="translate(316.000000 0.000000)" fill="white" fill-opacity="0"/>
		</clipPath>
		<linearGradient id="paint_linear_25001_3_0" x1="322.275909" y1="0.186069" x2="332.719543" y2="20.811783" gradientUnits="userSpaceOnUse">
			<stop stop-color="#D4145A"/>
			<stop offset="1.000000" stop-color="#2E3192"/>
		</linearGradient>
	</defs>
	<g opacity="0.094610">
		<path d="M334.353 1.45502L338.803 10.2394C339.089 10.7963 339.053 11.443 338.714 11.946L333.37 20.2095C333.031 20.7125 332.459 21.0179 331.851 20.982L322.058 20.461C321.45 20.4251 320.896 20.0658 320.628 19.5269L316.179 10.7424C315.91 10.2035 315.928 9.55681 316.268 9.03586L321.611 0.772385C321.951 0.269394 322.523 -0.0359955 323.13 -7.62939e-05L332.924 0.520889C333.531 0.556808 334.085 0.916092 334.353 1.45502ZM379.615 28.9913L370.909 11.8407C370.384 10.7885 369.3 10.0871 368.112 10.0169L348.951 8.99982C347.762 8.92967 346.643 9.52591 345.979 10.5079L335.524 26.6414C334.86 27.6585 334.825 28.9211 335.349 29.9733L344.056 47.1239C344.58 48.176 345.664 48.8775 346.853 48.9476L366.014 49.9648C367.202 50.0349 368.321 49.4387 368.986 48.4566L379.44 32.3232C380.105 31.3411 380.174 30.0785 379.615 28.9913ZM86.3595 357.645L69.6467 349.51C68.6289 349.005 67.3777 349.098 66.41 349.74L50.8785 360.164C49.9108 360.806 49.3832 361.92 49.4332 363.066L50.6145 381.626C50.6849 382.799 51.3881 383.793 52.4059 384.298L69.1187 392.433C70.1365 392.938 71.3876 392.845 72.3553 392.204L87.8869 381.779C88.8546 381.137 89.3823 380.023 89.3322 378.877L88.1509 360.317C88.1008 359.171 87.4249 358.156 86.3595 357.645ZM33.4424 386.777L61.8775 400.618C63.6901 401.488 64.8402 403.214 64.9254 405.164L66.9352 436.742C67.0204 438.692 66.1227 440.588 64.4762 441.679L38.0509 459.416C36.4045 460.507 34.2758 460.665 32.5441 459.806L4.10901 445.965C2.37732 445.107 1.18079 443.415 1.0611 441.419L-0.948669 409.841C-1.03387 407.891 -0.136169 405.995 1.51025 404.904L27.9356 387.168C29.582 386.076 31.7108 385.918 33.4424 386.777ZM78.2587 398.346L83.4785 400.886C83.8112 401.046 84.0223 401.363 84.038 401.721L84.4069 407.517C84.4225 407.875 84.2577 408.224 83.9555 408.424L79.1047 411.68C78.8025 411.88 78.4117 411.909 78.0938 411.751L72.8741 409.211C72.5562 409.053 72.3366 408.742 72.3146 408.376L71.9457 402.579C71.9301 402.222 72.0948 401.874 72.3971 401.673L77.2479 398.417C77.5501 398.217 77.9409 398.188 78.2587 398.346Z" clip-rule="evenodd" fill="url(#paint_linear_25001_3_0)" fill-opacity="1.000000" fill-rule="evenodd"/>
	</g>
</svg>
