<svg width="100.000000" height="60.000000" viewBox="0 0 100 60" fill="none" xmlns="http://www.w3.org/2000/svg" xmlns:xlink="http://www.w3.org/1999/xlink">
	<desc>
			Created with Pixso.
	</desc>
	<defs>
		<linearGradient id="paint_linear_1_13_0" x1="9.234759" y1="29.994568" x2="210.408188" y2="29.994568" gradientUnits="userSpaceOnUse">
			<stop stop-color="#B8005F"/>
			<stop offset="1.000000" stop-color="#00FFFF"/>
		</linearGradient>
	</defs>
	<path d="M97.52 15.65L99.96 2.09C100.17 1 99.3 0 98.19 0L52.46 0L18.35 0C17.7 0 17.09 0.34 16.77 0.88L0.23 29.11C-0.09 29.65 -0.09 30.34 0.23 30.88L16.77 59.08C17.09 59.62 17.7 59.97 18.35 59.97L41.74 59.97L52.46 59.97L88.58 59.97C89.45 59.97 90.21 59.34 90.35 58.47L92.8 44.74C93 43.65 92.13 42.64 91.02 42.64L70.14 42.64C69 42.64 68.16 41.64 68.36 40.52L68.65 38.97C68.8 38.11 69.55 37.51 70.43 37.51L88.63 37.51C89.51 37.51 90.27 36.88 90.44 36.02L92.51 24.34C92.71 23.26 91.84 22.25 90.7 22.25L73.78 22.25C72.64 22.25 71.8 21.25 71.97 20.16L72.23 18.61C72.38 17.75 73.14 17.12 74.04 17.12L95.68 17.12C96.62 17.15 97.37 16.52 97.52 15.65ZM22.34 49.64L11.35 30.88C11.03 30.34 11.03 29.65 11.35 29.11L22.34 10.35C22.66 9.8 23.27 9.46 23.91 9.46L45.9 9.46C46.54 9.46 47.15 9.8 47.47 10.35L58.46 29.11C58.78 29.65 58.78 30.34 58.46 30.88L47.47 49.64C47.15 50.19 46.54 50.53 45.9 50.53L23.91 50.53C23.24 50.53 22.66 50.19 22.34 49.64Z" fill="url(#paint_linear_1_13_0)" fill-opacity="1.000000" fill-rule="nonzero"/>
</svg>
